<svg width="45" height="34" viewBox="0 0 45 34" fill="none" xmlns="http://www.w3.org/2000/svg">
<path d="M0 6.10542C0 3.03843 2.4857 0.552734 5.55269 0.552734H38.8688C41.9315 0.552734 44.4215 3.03843 44.4215 6.10542V28.3162C44.4215 31.3788 41.9315 33.8689 38.8688 33.8689H5.55269C2.4857 33.8689 0 31.3788 0 28.3162V6.10542ZM4.16452 6.10542V8.02284L19.1308 20.3082C20.918 21.7831 23.5035 21.7831 25.2908 20.3082L40.257 8.02284V6.02734C40.257 5.34193 39.6323 4.63917 38.8688 4.63917H5.55269C4.78573 4.63917 4.16452 5.34193 4.16452 6.02734V6.10542ZM4.16452 13.4107V28.3162C4.16452 29.0797 4.78573 29.7044 5.55269 29.7044H38.8688C39.6323 29.7044 40.257 29.0797 40.257 28.3162V13.4107L27.937 23.527C24.6054 26.26 19.8162 26.26 16.4065 23.527L4.16452 13.4107Z" fill="white"/>
</svg>
