<svg width="133" height="63" viewBox="0 0 133 63" fill="none" xmlns="http://www.w3.org/2000/svg">
<mask id="mask0_150_637" style="mask-type:luminance" maskUnits="userSpaceOnUse" x="0" y="0" width="133" height="63">
<path d="M132.222 0.913086H0V62.9027H132.222V0.913086Z" fill="white"/>
</mask>
<g mask="url(#mask0_150_637)">
<path d="M4.04357 50.7393C3.3099 50.7393 2.95147 51.2564 2.95147 52.0871V53.545H5.11326L4.86684 54.8213H2.94587V62.6608H1.32732V54.8213H0V53.545H0.716865C1.26011 53.545 1.33852 53.358 1.33852 52.9344V52.1037C1.33852 50.3872 2.50343 49.4795 4.06597 49.4795C4.68763 49.4795 5.34289 49.683 5.74052 49.9251L5.43809 51.2014C5.13567 50.9814 4.60922 50.7393 4.04357 50.7393Z" fill="white"/>
<path d="M6.56396 53.5502H8.14331V55.3437C8.70896 54.2159 9.57144 53.4017 11.1172 53.3467V54.9916C9.08419 55.0631 8.18251 56.4495 8.18251 58.617V62.666H6.56396V53.5557V53.5502Z" fill="white"/>
<path d="M11.739 60.5585C11.739 58.8201 12.9823 58.1379 16.0458 57.1036C17.1939 56.713 17.4739 56.2729 17.4739 55.7173C17.4739 54.9966 16.7571 54.5895 15.7434 54.5895C14.6121 54.5895 13.7272 55.2002 13.2959 56.1079L12.0526 55.3872C12.7135 54.1109 14.0296 53.2637 15.8162 53.2637C17.4907 53.2637 19.0925 53.8358 19.0925 55.9814V60.0469C19.0925 61.2297 19.4117 61.5047 20.1286 61.5268V62.7646C18.7564 62.8581 17.8156 62.341 17.6083 61.0481C17.0819 61.9889 15.973 62.9131 14.5393 62.9131C13.2399 62.9131 11.7334 62.451 11.7334 60.564L11.739 60.5585ZM14.9201 61.6148C16.3314 61.6148 17.4963 60.2449 17.4963 58.6935V57.5823C17.1603 57.8243 16.6898 58.0059 16.1242 58.2314C14.164 59.0236 13.3743 59.5077 13.3743 60.487C13.3743 61.4662 14.164 61.6148 14.9201 61.6148Z" fill="white"/>
<path d="M25.4768 59.2596L27.0785 58.484C27.717 59.9638 29.2403 61.3667 31.3293 61.3667C32.8695 61.3667 34.152 60.7725 34.152 59.3312C34.152 55.8213 26.2497 58.1484 26.2497 53.2851C26.2497 51.4367 27.7002 49.8633 30.2932 49.8633C32.455 49.8633 34.208 50.859 35.1097 52.6195L33.5303 53.3567C32.8135 52.1188 31.7214 51.3597 30.2204 51.3597C28.8091 51.3597 27.9802 52.1739 27.9802 53.1366C27.9802 56.4264 35.8825 54.1324 35.8825 59.1441C35.8825 61.5647 33.8104 62.8796 31.3069 62.8796C28.8035 62.8796 26.3001 61.3997 25.4712 59.2541L25.4768 59.2596Z" fill="white"/>
<path d="M38.2521 60.3333V54.8264H36.9136V53.5501H37.5184C38.0841 53.5501 38.2521 53.33 38.2521 52.7909V51.333H39.8706V53.5501H42.4469L42.2005 54.8264H39.865V60.1847C39.865 61.0374 40.2011 61.4996 41.0131 61.4996C41.5004 61.4996 41.9708 61.3345 42.2565 61.109V62.4953C41.9204 62.6989 41.4276 62.8639 40.7891 62.8639C39.1706 62.8639 38.2465 62.0497 38.2465 60.3333H38.2521Z" fill="white"/>
<path d="M43.2754 58.0776C43.2754 55.1949 45.0059 53.2529 47.5822 53.2529C50.1584 53.2529 51.889 55.1949 51.889 58.0776C51.889 60.9604 50.1584 62.9024 47.5822 62.9024C45.0059 62.9024 43.2754 60.9989 43.2754 58.0776ZM47.5822 61.5545C49.1615 61.5545 50.2368 60.2067 50.2368 58.0776C50.2368 55.9486 49.1615 54.6228 47.5822 54.6228C46.0028 54.6228 44.9275 55.9541 44.9275 58.0776C44.9275 60.2012 45.9804 61.5545 47.5822 61.5545Z" fill="white"/>
<path d="M54.2466 53.5502H55.8259V55.3437C56.3916 54.2159 57.2541 53.4017 58.7998 53.3467V54.9916C56.7668 55.0631 55.8651 56.4495 55.8651 58.617V62.666H54.2466V53.5557V53.5502Z" fill="white"/>
<path d="M59.7407 58.2262C59.7407 55.1399 61.6057 53.2529 64.0699 53.2529C66.7582 53.2529 68.1695 55.3765 68.0575 58.3912H61.3593C61.4545 60.5148 62.4906 61.626 64.1091 61.626C65.5036 61.626 66.3101 60.7568 66.7414 59.9646L67.9287 60.6468C67.2342 61.9616 65.8397 62.8859 64.0139 62.8859C61.3593 62.8859 59.7407 61.0209 59.7407 58.2262ZM66.4221 57.1699C66.2877 55.338 65.2908 54.5237 64.0139 54.5237C62.737 54.5237 61.6785 55.393 61.4153 57.1699H66.4221Z" fill="white"/>
<path d="M71.8767 61.1474L71.7087 62.6658H70.3926V49.7266H71.9943V55.1069C72.6328 53.9241 73.7809 53.2585 75.097 53.2585C77.41 53.2585 79.0286 55.1784 79.0286 58.0281C79.0286 60.8779 77.298 62.8914 74.985 62.8914C73.5905 62.8914 72.4648 62.2422 71.8823 61.1529L71.8767 61.1474ZM74.6602 61.6481C76.2059 61.6481 77.3316 60.2617 77.3316 58.0997C77.3316 55.9376 76.1835 54.5678 74.6602 54.5678C73.1368 54.5678 71.9887 55.9376 71.9887 58.0997C71.9887 60.2617 73.1368 61.6481 74.6602 61.6481Z" fill="white"/>
<path d="M81.3809 53.5502H82.9602V55.3437C83.5259 54.2159 84.3883 53.4017 85.9341 53.3467V54.9916C83.9011 55.0631 82.9994 56.4495 82.9994 58.617V62.666H81.3809V53.5557V53.5502Z" fill="white"/>
<path d="M86.5559 60.5585C86.5559 58.8201 87.7992 58.1379 90.8627 57.1036C92.0108 56.713 92.2908 56.2729 92.2908 55.7173C92.2908 54.9966 91.574 54.5895 90.5603 54.5895C89.429 54.5895 88.5441 55.2002 88.1128 56.1079L86.8695 55.3872C87.5304 54.1109 88.8465 53.2637 90.6331 53.2637C92.3076 53.2637 93.9094 53.8358 93.9094 55.9814V60.0469C93.9094 61.2297 94.2286 61.5047 94.9455 61.5268V62.7646C93.5733 62.8581 92.6324 62.341 92.4252 61.0481C91.8988 61.9889 90.7899 62.9131 89.3562 62.9131C88.0568 62.9131 86.5503 62.451 86.5503 60.564L86.5559 60.5585ZM89.737 61.6148C91.1483 61.6148 92.3132 60.2449 92.3132 58.6935V57.5823C91.9772 57.8243 91.5068 58.0059 90.9411 58.2314C88.9809 59.0236 88.1912 59.5077 88.1912 60.487C88.1912 61.4662 88.9809 61.6148 89.737 61.6148Z" fill="white"/>
<path d="M96.8442 53.5501H98.4628V54.81C98.8772 54.1443 99.7229 53.3301 101.341 53.3301C103.447 53.3301 104.467 54.7329 104.467 57.2141V62.6659H102.848V57.2856C102.848 55.7342 102.226 54.6229 100.742 54.6229C99.3477 54.6229 98.4628 55.6572 98.4628 57.2471V62.6604H96.8442V53.5501Z" fill="white"/>
<path d="M106.818 58.1323C106.818 55.3761 108.381 53.2526 110.845 53.2526C112.24 53.2526 113.253 53.8632 113.858 54.936V49.7207H115.477V62.66H113.858V61.1801C113.276 62.2529 112.279 62.8965 110.884 62.8965C108.437 62.8965 106.818 60.916 106.818 58.1268V58.1323ZM111.164 61.6092C112.783 61.6092 113.853 60.1843 113.853 58.0443C113.853 55.9043 112.777 54.5674 111.164 54.5674C109.551 54.5674 108.493 55.9153 108.493 58.0443C108.493 60.1733 109.568 61.6092 111.164 61.6092Z" fill="white"/>
<path d="M0.699707 0.913086H9.92375V14.8591L22.7825 0.913086H33.5691L20.4863 14.419C22.8889 22.2695 28.2542 29.5203 33.8995 30.0154V38.306C22.8889 37.7559 17.0756 29.6303 13.9449 21.1747L9.91814 25.3502V38.251H0.699707V0.913086Z" fill="white"/>
<path d="M37.2046 10.5788H45.7006V16.2342C46.9831 12.9939 49.1673 9.97364 54.0845 9.80859V18.2642C48.0472 18.5393 46.0366 22.8194 46.0366 27.8201V38.2508H37.2046V10.5788Z" fill="white"/>
<path d="M55.3662 24.4704C55.3662 15.4647 61.5156 9.69922 70.0675 9.69922C78.6195 9.69922 84.7129 15.4647 84.7129 24.3054C84.7129 33.1461 78.6195 39.0766 70.0675 39.0766C61.5156 39.0766 55.3662 33.4762 55.3662 24.4704ZM70.0675 31.7708C73.4783 31.7708 75.8809 28.9706 75.8809 24.4154C75.8809 19.8603 73.4783 16.895 70.0675 16.895C66.6568 16.895 64.2542 19.7502 64.2542 24.4154C64.2542 29.0806 66.6008 31.7708 70.0675 31.7708Z" fill="white"/>
<path d="M88.959 10.5788H97.791V13.8741C99.4655 11.8441 102.26 9.80859 106.119 9.80859C112.996 9.80859 115.679 14.8589 115.679 22.2197V38.2508H106.903V22.5993C106.903 19.249 105.727 16.7238 102.434 16.7238C99.3591 16.7238 97.7966 19.0839 97.7966 22.3793V38.2452H88.9646V10.5788H88.959Z" fill="white"/>
<path d="M120.539 33.145C120.539 30.0147 123.166 27.4346 126.408 27.4346C129.651 27.4346 132.222 30.0147 132.222 33.145C132.222 36.2753 129.595 38.8554 126.408 38.8554C123.222 38.8554 120.539 36.3303 120.539 33.145Z" fill="white"/>
</g>
</svg>
