<svg width="46" height="46" viewBox="0 0 46 46" fill="none" xmlns="http://www.w3.org/2000/svg">
<path d="M23.1897 0.546875C10.6917 0.546875 0.559082 10.6853 0.559082 23.1906C0.559082 35.6962 10.6913 45.835 23.1897 45.835C35.6886 45.835 45.8216 35.6962 45.8216 23.1906C45.8212 10.6853 35.6886 0.546875 23.1897 0.546875ZM13.7991 10.7597C15.3385 10.7597 16.5872 11.8991 16.5872 13.3047C16.5872 14.7103 15.3385 15.8497 13.7991 15.8497C12.2589 15.8497 11.011 14.7103 11.011 13.3047C11.011 11.8991 12.2589 10.7597 13.7991 10.7597ZM16.6083 32.5271H11.0994V18.1441H16.6083V32.5271ZM35.3278 32.5271H29.7923V24.6181C29.7923 23.7152 29.6248 23.0762 29.291 22.7011C28.9569 22.3268 28.4877 22.1389 27.8839 22.1389C27.2159 22.1389 26.674 22.3918 26.2592 22.8977C25.844 23.4036 25.637 24.3108 25.637 25.62V32.5271H20.1277V18.1441H25.2574V20.4866C26.024 19.5301 26.8004 18.8461 27.5853 18.435C28.3703 18.0243 29.3263 17.8191 30.4544 17.8191C31.9797 17.8191 33.1728 18.2725 34.0349 19.1801C34.8962 20.0873 35.3274 21.489 35.3274 23.3852L35.3278 32.5271Z" fill="white"/>
</svg>
