<svg width="181" height="36" viewBox="0 0 181 36" fill="none" xmlns="http://www.w3.org/2000/svg">
<g clip-path="url(#clip0_150_629)">
<path d="M172.313 1.65162H171.089V0.94043H174.327V1.65162H173.103V5.51113H172.313L172.313 1.65162ZM175.091 0.94043H176.447L177.632 4.80093H177.711L178.896 0.94043H180.252V5.51113H179.489V1.65162H179.409L178.211 5.51113H177.132L175.934 1.65162H175.854V5.51113H175.091V0.94043Z" fill="white"/>
<path d="M123.629 17.9819C123.629 12.0548 121.264 6.80762 114.971 6.80762C108.665 6.80762 106.235 12.0548 106.235 17.9819C106.235 23.9091 108.665 29.1619 114.971 29.1619C121.264 29.1619 123.629 23.9092 123.629 17.9819ZM132.91 17.9819C132.91 28.1159 125.478 35.6091 114.953 35.6091C104.238 35.6091 96.9541 28.4303 96.9541 17.9876C96.954 8.11073 104.143 0.354492 114.953 0.354492C125.478 0.354492 132.91 7.85352 132.91 17.9819Z" fill="white"/>
<path d="M61.2624 14.7109H44.9851C45.1473 13.583 45.4944 12.4871 46.0134 11.4644C47.4741 8.64079 50.2301 6.84028 53.6734 6.84028C58.3879 6.84028 61.2624 9.92686 61.2624 14.5052V14.7109ZM69.7103 14.8479C69.2779 10.2697 67.5353 6.57744 64.6077 4.08519C61.8046 1.6788 58.0411 0.370117 53.3742 0.370117C49.9339 0.370117 45.5868 1.51912 42.3865 4.05101C38.5786 7.08052 35.6152 11.8129 35.6152 18.1917C35.6152 23.6902 37.4732 28.1143 40.801 31.1034C44.0547 34.0414 48.6742 35.6362 54.3847 35.6362C58.9893 35.6362 64.5544 33.9673 66.925 32.5438C67.7664 32.0525 68.0331 31.8295 67.8228 31.0178L66.3263 26.9483C66.1603 26.2969 65.3841 26.1195 64.7676 26.4224C63.8269 26.8899 62.8616 27.3097 61.8755 27.6799C59.8191 28.4174 57.6707 28.9201 55.6468 28.9201C51.3769 28.9201 48.9321 27.7998 47.0772 25.7195C45.8978 24.4049 45.2074 22.753 44.9938 20.8326H68.5845C69.4317 20.8326 69.8171 20.2666 69.8171 19.2891V17.6543C69.8171 16.8484 69.7816 15.6081 69.7103 14.8479Z" fill="white"/>
<path d="M78.1907 5.22919C80.8576 1.91416 85.0237 0.399414 91.8392 0.399414C93.4513 0.400187 95.0593 0.555331 96.6396 0.862564C97.4397 1.04556 97.5702 1.65681 97.416 2.45141L96.6101 6.28091C96.4324 6.99553 96.219 7.20125 95.6382 7.20125C95.4776 7.19991 95.3173 7.18841 95.1582 7.16681C94.5951 7.09272 92.989 6.92681 92.3253 6.92681C88.9353 6.92681 87.3292 7.74414 86.1173 8.96747C84.7096 10.4249 84.6681 12.5684 84.6681 16.4035V33.4308C84.6681 34.5509 84.1586 35.1797 82.914 35.1797H77.5209C76.3712 35.1797 75.8733 34.6309 75.7783 33.4308V16.7123C75.7783 10.6249 76.143 7.77281 78.1907 5.22919Z" fill="white"/>
<path d="M151.294 12.3164C152.5 11.0991 155.312 7.74973 158.426 2.07981C158.957 1.10793 159.434 0.862305 160.13 0.862305H165.914C166.442 0.862305 167.064 1.10793 166.726 2.07981C164.427 8.65835 159.176 14.4369 156.272 17.4208C159.434 20.3127 165.055 27.1603 167.695 33.8821C167.929 34.4878 167.814 35.1794 166.495 35.1794H159.573C158.862 35.1794 158.29 35.1164 157.813 33.9678C156.097 29.8465 153.416 25.5142 150.351 22.6676C146.997 26.0971 144.455 30.3153 142.742 33.9678C142.315 34.865 141.9 35.1794 140.985 35.1794H134.634C134.205 35.1794 133.772 34.705 134.054 33.9678C135.941 28.9721 139.702 22.7534 145.095 18.0722C140.851 13.1452 136.789 7.13808 135.188 2.07981C134.943 1.3195 135.363 0.862305 135.956 0.862305H143.409C144.224 0.862305 144.644 1.18228 145.041 2.07981C146.879 6.20079 149.383 10.1275 151.294 12.3164Z" fill="white"/>
<path d="M17.7998 12.3164C19.0028 11.0991 21.8121 7.74973 24.9383 2.07981C25.4628 1.10793 25.931 0.862305 26.6362 0.862305H32.4324C32.948 0.862305 33.5702 1.10793 33.2325 2.07981C30.9209 8.65835 25.6761 14.4369 22.7722 17.4208C25.9428 20.3186 31.5611 27.1658 34.2163 33.8821C34.4415 34.4878 34.3227 35.1794 32.9925 35.1794H26.0644C25.3502 35.1794 24.808 35.1164 24.3191 33.9678C22.6062 29.8465 19.9157 25.5142 16.8576 22.6734C13.5062 26.0971 10.9607 30.3212 9.23888 33.9678C8.82713 34.865 8.41232 35.1794 7.49362 35.1794H1.14625C0.71966 35.1794 0.287026 34.705 0.559809 33.9678C2.45015 28.9721 6.21363 22.7534 11.5887 18.0722C7.38107 13.1452 3.29772 7.13812 1.69763 2.07981C1.45459 1.3195 1.88116 0.862305 2.46509 0.862305H9.91779C10.7294 0.862305 11.1446 1.18228 11.5564 2.07981C13.3788 6.20079 15.8914 10.1275 17.7998 12.3164Z" fill="white"/>
</g>
<defs>
<clipPath id="clip0_150_629">
<rect width="179.776" height="35.2832" fill="white" transform="translate(0.474609 0.354492)"/>
</clipPath>
</defs>
</svg>
